<svg width="22" height="23" viewBox="0 0 22 23" fill="none" xmlns="http://www.w3.org/2000/svg">
<path id="Logo" d="M10.7687 0.731445C4.80555 0.731445 0 5.53697 0 11.5001C0 17.4631 4.80555 22.2688 10.7687 22.2688C16.7316 22.2688 21.5373 17.4631 21.5373 11.5001C21.5373 5.53697 16.7316 0.731445 10.7687 0.731445ZM15.1596 16.5541C14.9944 16.5541 14.8261 16.4697 14.6609 16.3857C13.0889 15.4766 11.1833 14.9787 9.11242 14.9787C7.9539 14.9787 6.79227 15.1441 5.71477 15.3924C5.54955 15.3924 5.30021 15.4766 5.21912 15.4766C4.80555 15.4766 4.55621 15.1441 4.55621 14.8136C4.55621 14.3991 4.80555 14.1506 5.135 14.0696C6.46181 13.7361 7.78557 13.5709 9.19658 13.5709C11.5127 13.5709 13.6676 14.1497 15.4901 15.2281C15.7384 15.3924 15.9036 15.5576 15.9036 15.9721C15.8226 16.3058 15.4901 16.5541 15.1596 16.5541ZM16.3183 13.7361C16.069 13.7361 15.9036 13.6551 15.7384 13.5709C13.9981 12.4934 11.5967 11.8304 8.86308 11.8304C7.53938 11.8304 6.29659 11.9987 5.38434 12.2441C5.135 12.3282 5.05391 12.3282 4.88564 12.3282C4.39099 12.3282 4.05751 11.9146 4.05751 11.5001C4.05751 11.0014 4.30687 10.7561 4.72144 10.5879C5.96313 10.2574 7.20581 10.008 8.94724 10.008C11.7621 10.008 14.4968 10.6719 16.6518 11.9987C16.9811 12.163 17.1463 12.4934 17.1463 12.8269C17.1463 13.3216 16.8159 13.7361 16.3183 13.7361ZM17.6451 10.4226C17.3956 10.4226 17.3116 10.3415 17.0654 10.2574C15.0756 9.09886 12.0956 8.43588 9.19658 8.43588C7.70456 8.43588 6.21247 8.60106 4.88564 8.93054C4.72142 8.93054 4.55621 9.01471 4.30687 9.01471C3.7281 9.09887 3.31351 8.60106 3.31351 8.02137C3.31351 7.44258 3.64397 7.1091 4.05751 7.02799C5.63368 6.53033 7.28995 6.3651 9.19658 6.3651C12.3407 6.3651 15.6543 7.02799 18.1396 8.43588C18.4731 8.60106 18.7225 8.93054 18.7225 9.42922C18.6383 10.008 18.2238 10.4226 17.6451 10.4226Z" fill="white"/>
</svg>
